#!OML:ASF H:\BabyWalks\Project 1\Capture day 1\Session 1\baby.ASF
:FULLY-SPECIFIED
:DEGREES
516
root 13.416 17.7322 -1.25987 157.492 99.5214 155.347
lowerback 20.3092 2.03763 5.66312
upperback 5.81213 4.20199 1.10524
thorax -4.7062 2.18705 -3.02942
lowerneck -1.4168 1.35621 9.78613
upperneck 3.65173 1.81452 -7.18946
head 1.62021 0.929929 -4.11576
rclavicle 2.70347e-014 1.59028e-014
rhumerus -45.8372 5.23903 -82.2714
rradius 53.4938
rwrist -11.3822
rhand -11.9526 -12.096
rfingers 7.12502
rthumb 14.1027 -41.5975
lclavicle 2.70347e-014 1.59028e-014
lhumerus -57.2187 -3.23811 81.9034
lradius 45.4874
lwrist -0.690171
lhand 24.3143 23.9611
lfingers 7.12502
lthumb 48.5309 45.9224
rfemur -5.87886 5.56355 25.8533
rtibia 29.8871
rfoot -18.4802 -0.0495717
rtoes -1.9424
lfemur -31.6005 5.04201 -12.8485
ltibia 32.0283
lfoot -18.1032 -0.0188515
ltoes -11.5096
517
root 13.6034 17.7403 -1.27855 157.602 100.211 155.446
lowerback 20.2294 2.14064 5.68422
upperback 5.81516 4.32427 1.00941
thorax -4.64085 2.24789 -3.1656
lowerneck -1.42705 1.43353 9.78226
upperneck 3.76855 1.91555 -7.04242
head 1.66767 0.983832 -4.06069
rclavicle -1.71949e-014 -1.19271e-015
rhumerus -45.8397 5.45338 -82.4192
rradius 53.4525
rwrist -11.0642
rhand -11.658 -12.062
rfingers 7.12502
rthumb 14.3866 -41.5434
lclavicle -1.71949e-014 -1.19271e-015
lhumerus -57.5309 -3.33946 81.7961
lradius 45.7989
lwrist -0.200828
lhand 24.3772 23.832
lfingers 7.12502
lthumb 48.5887 45.7654
rfemur -4.98857 5.48671 25.9897
rtibia 29.2893
rfoot -18.2678 0.375583
rtoes -2.51389
lfemur -31.2991 4.37189 -12.2501
ltibia 30.3015
lfoot -18.0884 1.45485
ltoes -11.5389
518
root 13.7921 17.7437 -1.29679 157.655 100.874 155.504
lowerback 20.1206 2.23314 5.68349
upperback 5.82079 4.42722 0.921412
thorax -4.56121 2.30005 -3.2745
lowerneck -1.4475 1.51405 9.76236
upperneck 3.89664 2.02069 -6.89759
head 1.72068 1.03966 -4.00321
rclavicle 1.69961e-014 -1.90833e-014
rhumerus -45.8795 5.63145 -82.5332
rradius 53.3652
rwrist -10.7096
rhand -11.4419 -12.031
rfingers 7.12502
rthumb 14.5948 -41.4975
lclavicle 1.69961e-014 -1.90833e-014
lhumerus -57.8109 -3.46659 81.7
lradius 46.1083
lwrist 0.204944
lhand 24.3566 23.6271
lfingers 7.12502
lthumb 48.5697 45.5697
rfemur -4.12911 5.45183 26.1124
rtibia 28.805
rfoot -18.0842 0.762101
rtoes -3.20127
lfemur -30.9858 3.69132 -11.6579
ltibia 28.8939
lfoot -18.0108 3.07002
ltoes -11.3406
519
root 13.9818 17.742 -1.31416 157.636 101.51 155.504
lowerback 19.9826 2.31295 5.66144
upperback 5.82797 4.50825 0.841443
thorax -4.46891 2.3421 -3.35563
lowerneck -1.47048 1.59961 9.73818
upperneck 4.02223 2.13249 -6.76116
head 1.77384 1.09866 -3.94772
rclavicle -1.99779e-014 -5.56597e-015
rhumerus -45.9556 5.76996 -82.615
rradius 53.2395
rwrist -10.3477
rhand -11.2896 -12.0196
rfingers 7.12502
rthumb 14.7415 -41.4754
lclavicle -1.99779e-014 -5.56597e-015
lhumerus -58.0534 -3.60869 81.6045
lradius 46.4056
lwrist 0.525602
lhand 24.2573 23.3549
lfingers 7.12502
lthumb 48.4784 45.3414
rfemur -3.31297 5.46457 26.2296
rtibia 28.458
rfoot -17.9413 1.10794
rtoes -4.01598
lfemur -30.6621 3.06545 -11.1009
ltibia 27.7928
lfoot -17.8788 4.72031
ltoes -10.9226
520
root 14.173 17.735 -1.33027 157.557 102.122 155.46
lowerback 19.8152 2.3807 5.61768
upperback 5.83743 4.568 0.766788
thorax -4.3629 2.37437 -3.41183
lowerneck -1.49953 1.69357 9.70771
upperneck 4.14858 2.25486 -6.62221
head 1.82897 1.1629 -3.88982
rclavicle 1.42628e-014 -6.75868e-015
rhumerus -46.0732 5.85691 -82.6681
rradius 53.0841
rwrist -9.99081
rhand -11.1847 -12.0417
rfingers 7.12502
rthumb 14.8425 -41.4901
lclavicle 1.42628e-014 -6.75868e-015
lhumerus -58.2607 -3.76164 81.5
lradius 46.6905
lwrist 0.769988
lhand 24.0839 23.0417
lfingers 7.12502
lthumb 48.3188 45.1044
rfemur -2.54521 5.52655 26.3449
rtibia 28.2672
rfoot -17.8412 1.42234
rtoes -4.9314
lfemur -30.3165 2.55681 -10.6078
ltibia 26.9731
lfoot -17.7171 6.28382
ltoes -10.3362
521
root 14.3655 17.722 -1.34492 157.438 102.708 155.394
lowerback 19.6199 2.4372 5.54849
upperback 5.8476 4.60686 0.694
thorax -4.24573 2.39682 -3.44504
lowerneck -1.51913 1.79496 9.68441
upperneck 4.26111 2.38712 -6.48338
head 1.87862 1.23224 -3.83304
rclavicle -3.23522e-014 1.17283e-014
rhumerus -46.2298 5.89041 -82.6907
rradius 52.9047
rwrist -9.65793
rhand -11.1005 -12.1104
rfingers 7.12502
rthumb 14.9237 -41.5528
lclavicle -3.23522e-014 1.17283e-014
lhumerus -58.4311 -3.92723 81.3798
lradius 46.9527
lwrist 0.952825
lhand 23.8252 22.6895
lfingers 7.12502
lthumb 48.0804 44.8647
rfemur -1.83153 5.62847 26.4546
rtibia 28.2436
rfoot -17.7851 1.71725
rtoes -5.93526
lfemur -29.9416 2.20893 -10.2043
ltibia 26.4059
lfoot -17.5482 7.64928
ltoes -9.67434
522
root 14.5592 17.703 -1.35797 157.248 103.273 155.278
lowerback 19.4074 2.47812 5.46045
upperback 5.86081 4.62157 0.623951
thorax -4.12043 2.40782 -3.45809
lowerneck -1.53006 1.9082 9.6672
upperneck 4.3562 2.53487 -6.33972
head 1.92208 1.30943 -3.77523
rclavicle -1.25856e-014 8.02593e-015
rhumerus -46.4186 5.87563 -82.6864
rradius 52.7017
rwrist -9.35514
rhand -11.0549 -12.212
rfingers 7.12502
rthumb 14.9676 -41.6511
lclavicle -1.25856e-014 8.02593e-015
lhumerus -58.5603 -4.08822 81.2343
lradius 47.1846
lwrist 1.08352
lhand 23.4769 22.3105
lfingers 7.12502
lthumb 47.7593 44.6349
rfemur -1.16238 5.76005 26.5682
rtibia 28.3804
rfoot -17.7602 2.01016
rtoes -6.99359
lfemur -29.5253 2.0327 -9.88582
ltibia 26.065
lfoot -17.3442 8.74734
ltoes -9.12691
523
root 14.7543 17.6781 -1.36961 156.98 103.821 155.115
lowerback 19.1889 2.50333 5.36088
upperback 5.87616 4.61418 0.554438
thorax -3.99272 2.4081 -3.45886
lowerneck -1.52276 2.03329 9.66058
upperneck 4.42903 2.69853 -6.18668
head 1.95599 1.39493 -3.71564
rclavicle 4.6702e-014 -4.27387e-015
rhumerus -46.6377 5.81223 -82.6542
rradius 52.4774
rwrist -9.08344
rhand -11.043 -12.3509
rfingers 7.12502
rthumb 14.979 -41.7892
lclavicle 4.6702e-014 -4.27387e-015
lhumerus -58.6553 -4.24803 81.0591
lradius 47.388
lwrist 1.17428
lhand 23.0422 21.9226
lfingers 7.12502
lthumb 47.3579 44.4296
rfemur -0.523678 5.90258 26.6849
rtibia 28.6661
rfoot -17.751 2.32305
rtoes -8.0821
lfemur -29.0612 2.01405 -9.64164
ltibia 25.9281
lfoot -17.0207 9.51507
ltoes -8.78172
524
root 14.9503 17.6493 -1.38013 156.614 104.351 154.889
lowerback 18.9803 2.5114 5.26459
upperback 5.89049 4.58642 0.480774
thorax -3.87243 2.39812 -3.46239
lowerneck -1.48383 2.16534 9.67737
upperneck 4.47555 2.8723 -6.02122
head 1.97619 1.48623 -3.65595
rclavicle -1.30701e-014 2.25621e-014
rhumerus -46.8903 5.6858 -82.5973
rradius 52.2324
rwrist -8.82822
rhand -11.05 -12.5269
rfingers 7.12502
rthumb 14.9723 -41.9656
lclavicle -1.30701e-014 2.25621e-014
lhumerus -58.7078 -4.41342 80.8496
lradius 47.5429
lwrist 1.23264
lhand 22.5061 21.5299
lfingers 7.12502
lthumb 46.8621 44.2566
rfemur 0.0934095 6.04323 26.8075
rtibia 29.0848
rfoot -17.7243 2.67794
rtoes -9.16193
lfemur -28.5657 2.12147 -9.44604
ltibia 25.9779
lfoot -16.3319 9.94143
ltoes -8.44937
525
root 15.1466 17.618 -1.38977 156.141 104.859 154.599
lowerback 18.8013 2.49572 5.16755
upperback 5.90596 4.53043 0.406323
thorax -3.76893 2.37381 -3.46272
lowerneck -1.39649 2.30818 9.71199
upperneck 4.47888 3.06294 -5.84586
head 1.97453 1.58645 -3.59587
rclavicle -2.90226e-014 1.37161e-014
rhumerus -47.1613 5.51267 -82.5131
rradius 51.9574
rwrist -8.57197
rhand -11.0635 -12.7342
rfingers 7.12502
rthumb 14.9593 -42.1739
lclavicle -2.90226e-014 1.37161e-014
lhumerus -58.7232 -4.56204 80.6021
lradius 47.6514
lwrist 1.25942
lhand 21.8753 21.1336
lfingers 7.12502
lthumb 46.2779 44.1115
rfemur 0.6966 6.16197 26.9331
rtibia 29.631
rfoot -17.6416 3.09099
rtoes -10.2496
lfemur -28.0499 2.30911 -9.27279
ltibia 26.2011
lfoot -15.1769 10.0874
ltoes -8.15395
526
root 15.3427 17.5854 -1.39917 155.559 105.346 154.246
lowerback 18.6633 2.45301 5.07388
upperback 5.92499 4.44338 0.33243
thorax -3.68569 2.3338 -3.46097
lowerneck -1.24998 2.46192 9.76212
upperneck 4.42473 3.27182 -5.66295
head 1.94442 1.69595 -3.536
rclavicle 4.36332e-014 -3.79679e-014
rhumerus -47.4342 5.3028 -82.3986
rradius 51.6489
rwrist -8.30305
rhand -11.0991 -12.9521
rfingers 7.12502
rthumb 14.925 -42.3944
lclavicle 4.36332e-014 -3.79679e-014
lhumerus -58.6888 -4.67186 80.3088
lradius 47.6971
lwrist 1.22896
lhand 21.1728 20.7239
lfingers 7.12502
lthumb 45.6261 43.9726
rfemur 1.27153 6.24543 27.0555
rtibia 30.3158
rfoot -17.4562 3.59001
rtoes -11.3428
lfemur -27.5376 2.54083 -9.09596
ltibia 26.5927
lfoot -13.5137 9.91414
ltoes -7.67277
